<?xml version="1.0" encoding="iso-8859-1"?>
<!-- Generator: Adobe Illustrator 19.0.0, SVG Export Plug-In . SVG Version: 6.00 Build 0)  -->
<svg version="1.1" id="Capa_1" xmlns="http://www.w3.org/2000/svg" xmlns:xlink="http://www.w3.org/1999/xlink" x="0px" y="0px"
	 viewBox="0 0 512.001 512.001" style="enable-background:new 0 0 512.001 512.001;" xml:space="preserve">
<g>
	<g>
		<path d="M504.412,208.765l-39.317-9.796l-22.122-53.38l59.468-59.468c6.164-6.164,9.559-14.359,9.559-23.076
			c0-8.718-3.395-16.913-9.559-23.076L472.032,9.56c-12.726-12.724-33.428-12.722-46.151,0l-59.466,59.466l-53.386-22.125
			l-9.796-39.316c-1.109-4.456-5.111-7.583-9.703-7.583h-75.063c-4.592,0-8.594,3.127-9.703,7.583l-9.796,39.316l-50.49,20.924
			l-34.71-20.865c-3.935-2.365-8.977-1.749-12.224,1.499l-53.089,53.089c-3.247,3.247-3.865,8.288-1.499,12.224l20.865,34.71
			L46.9,198.97l-39.317,9.796C3.127,209.874,0,213.876,0,218.468v75.063c0,4.592,3.127,8.594,7.583,9.703l39.316,9.796
			l20.924,50.488l-20.865,34.71c-2.366,3.936-1.748,8.977,1.499,12.224l53.089,53.089c3.248,3.247,8.289,3.863,12.224,1.499
			l34.71-20.865l50.487,20.923l9.796,39.317c1.109,4.456,5.111,7.583,9.703,7.583h75.063c4.592,0,8.594-3.127,9.703-7.583
			l9.796-39.317l50.487-20.923l34.71,20.865c3.935,2.364,8.977,1.748,12.224-1.499l53.089-53.089
			c3.247-3.247,3.865-8.288,1.499-12.224l-20.865-34.71l20.924-50.488l39.316-9.796c4.456-1.109,7.583-5.111,7.583-9.703v-75.063
			C511.995,213.876,508.868,209.874,504.412,208.765z M440.024,23.703c4.926-4.926,12.941-4.926,17.867,0l30.409,30.409
			c2.386,2.387,3.7,5.559,3.7,8.934c0,3.374-1.314,6.547-3.701,8.934l-25.83,25.83l-48.276-48.276L440.024,23.703z M400.051,63.674
			l17.157,17.157l-42.458,42.458c-3.905,3.905-3.905,10.237,0,14.143c1.953,1.952,4.512,2.929,7.071,2.929
			c2.559,0,5.118-0.977,7.071-2.929l42.458-42.458l16.976,16.976l-65.343,65.346c-0.022,0.022-0.044,0.044-0.066,0.066
			L271.543,288.735l-16.977-16.977l80.594-80.593c3.905-3.905,3.905-10.237,0-14.143c-3.904-3.903-10.234-3.904-14.143,0
			l-80.594,80.593l-17.157-17.157l111.377-111.377c0.02-0.019,0.039-0.039,0.058-0.058L400.051,63.674z M206.228,278.607
			l7.034-19.868l20.072,20.072c0.007,0.006,0.012,0.014,0.018,0.02c0.006,0.006,0.014,0.012,0.02,0.018l19.892,19.892l-19.867,7.034
			L206.228,278.607z M212.507,313.169l-21.168,7.494l7.494-21.168L212.507,313.169z M491.995,285.718l-36.625,9.125
			c-3.077,0.767-5.607,2.946-6.821,5.875l-24.784,59.803c-1.214,2.93-0.967,6.262,0.668,8.98l19.438,32.335l-42.038,42.038
			l-32.335-19.438c-2.717-1.634-6.05-1.882-8.98-0.668l-59.803,24.783c-2.929,1.214-5.108,3.744-5.875,6.821l-9.125,36.626h-59.435
			l-9.125-36.626c-0.767-3.077-2.946-5.607-5.875-6.821l-59.803-24.783c-2.93-1.215-6.264-0.967-8.98,0.668l-32.335,19.438
			l-42.038-42.038l19.438-32.335c1.635-2.719,1.882-6.051,0.668-8.98l-24.786-59.803c-1.214-2.929-3.744-5.108-6.821-5.875
			L20,285.718v-59.435l36.626-9.125c3.077-0.767,5.607-2.946,6.821-5.875l24.783-59.803c1.214-2.93,0.967-6.262-0.668-8.98
			l-19.438-32.335l42.038-42.038l32.335,19.438c2.719,1.635,6.052,1.882,8.98,0.668l59.803-24.784
			c2.929-1.214,5.108-3.744,5.875-6.821l9.125-36.625h59.435l9.125,36.625c0.767,3.077,2.946,5.607,5.875,6.821l50.394,20.885
			l-25.42,25.42c-21.645-10.313-45.578-15.752-69.691-15.752c-29.229,0-57.88,7.872-82.856,22.766
			c-4.744,2.828-6.297,8.967-3.468,13.71c1.871,3.139,5.191,4.881,8.599,4.881c1.741-0.001,3.507-0.456,5.111-1.413
			c21.881-13.047,46.991-19.943,72.614-19.943c18.744,0,37.36,3.741,54.558,10.885L202.055,233.388
			c-1.054,1.054-1.858,2.329-2.355,3.734l-34.209,96.626c-1.286,3.633-0.37,7.683,2.355,10.408c1.908,1.907,4.464,2.929,7.073,2.929
			c1.117,0,2.245-0.188,3.335-0.573l96.626-34.209c1.405-0.497,2.681-1.302,3.734-2.355l108.5-108.5
			c7.142,17.196,10.882,35.81,10.882,54.552c0,78.298-63.7,141.999-141.999,141.999S113.999,334.298,113.999,256
			c0-25.317,6.742-50.164,19.496-71.857c2.8-4.761,1.209-10.89-3.552-13.688c-4.762-2.802-10.89-1.209-13.688,3.552
			c-14.56,24.762-22.256,53.115-22.256,81.993c0,89.326,72.672,161.998,161.998,161.998S417.996,345.326,417.996,256
			c0-24.113-5.438-48.043-15.749-69.685l25.42-25.42l20.881,50.388c1.214,2.929,3.744,5.108,6.821,5.875l36.627,9.126V285.718z"/>
	</g>
</g>
<g>
	<g>
		<path d="M155.547,141.408c-3.929-3.883-10.26-3.848-14.142,0.083l-0.209,0.209c-3.905,3.905-3.905,10.237,0,14.143
			c1.953,1.952,4.512,2.929,7.072,2.929s5.118-0.977,7.071-2.929l0.291-0.293C159.512,151.622,159.476,145.291,155.547,141.408z"/>
	</g>
</g>
<g>
	<g>
		<path d="M362.322,149.86c-3.906-3.904-10.236-3.904-14.142,0l-0.108,0.108c-3.905,3.905-3.905,10.237,0,14.143
			c1.953,1.952,4.512,2.929,7.071,2.929c2.559,0,5.118-0.977,7.071-2.929l0.108-0.108
			C366.227,160.098,366.227,153.766,362.322,149.86z"/>
	</g>
</g>
<g>
	<g>
		<path d="M366.996,246c-5.522,0-10,4.478-10,10c0,55.69-45.309,100.999-100.999,100.999c-5.522,0-10,4.478-10,10
			c0,5.522,4.478,10,10,10c66.719,0,120.999-54.279,120.999-120.999C376.996,250.478,372.518,246,366.996,246z"/>
	</g>
</g>
<g>
</g>
<g>
</g>
<g>
</g>
<g>
</g>
<g>
</g>
<g>
</g>
<g>
</g>
<g>
</g>
<g>
</g>
<g>
</g>
<g>
</g>
<g>
</g>
<g>
</g>
<g>
</g>
<g>
</g>
</svg>
