<?xml version="1.0" encoding="iso-8859-1"?>
<!-- Generator: Adobe Illustrator 19.0.0, SVG Export Plug-In . SVG Version: 6.00 Build 0)  -->
<svg version="1.1" id="Layer_1" xmlns="http://www.w3.org/2000/svg" xmlns:xlink="http://www.w3.org/1999/xlink" x="0px" y="0px"
	 viewBox="0 0 512 512" style="enable-background:new 0 0 512 512;" xml:space="preserve">
<g>
	<g>
		<path d="M462.275,55.689c-0.085-0.001-0.162-0.026-0.247-0.026c-0.039,0-0.076-0.011-0.115-0.011H50.087
			c-0.034,0-0.066,0.01-0.1,0.01c-0.073,0-0.143,0.021-0.217,0.022C22.3,55.859,0,78.228,0,105.739v300.522
			c0,27.619,22.468,50.087,50.087,50.087h411.826c27.619,0,50.087-22.468,50.087-50.087V105.739
			C512,78.244,489.725,55.888,462.275,55.689z M411.826,422.957H100.174V240.652l120.413,120.414
			c9.761,9.761,22.587,14.652,35.413,14.652c12.826,0,25.652-4.892,35.413-14.652l120.414-120.414V422.957z M256,254.805
			L90.239,89.043h331.54L256,254.805z"/>
	</g>
</g>
<g>
</g>
<g>
</g>
<g>
</g>
<g>
</g>
<g>
</g>
<g>
</g>
<g>
</g>
<g>
</g>
<g>
</g>
<g>
</g>
<g>
</g>
<g>
</g>
<g>
</g>
<g>
</g>
<g>
</g>
</svg>
