<svg width="40" height="37" viewBox="0 0 150 140" fill="none" xmlns="http://www.w3.org/2000/svg">
<path d="M46.6 -9.53674e-06V116.8H23.2V79.8C17.2 88.2 9.2 95.2 1.49012e-07 100V130.8C1.49012e-07 136 4 140 9.2 140H69.8V-9.53674e-06H46.6ZM142.639 0.399997C142.039 0.199988 141.239 -9.53674e-06 140.639 -9.53674e-06H89.2391C84.0391 -9.53674e-06 80.0391 4.2 80.0391 9.39999V140H103.239V106C111.839 104.2 119.639 100.8 126.639 96.2C136.639 89.6 144.639 80.2 149.839 69.4V9.39999C149.839 5 146.839 1.4 142.639 0.399997ZM103.239 81.8V23.4H126.639V63.4C121.239 72 113.039 78.6 103.239 81.8Z" fill="#fdfdfd"/>
</svg>
