<svg width="957" height="290" viewBox="0 0 957 290" fill="none" xmlns="http://www.w3.org/2000/svg">
<path d="M56.6 110V226.8H33.2V189.8C27.2 198.2 19.2 205.2 10 210V240.8C10 246 14 250 19.2 250H79.8V110H56.6ZM110.039 119.4V240.8C110.039 246 114.039 250 119.239 250H170.639C175.839 250 179.839 246 179.839 240.8V119.4C179.839 114.2 175.839 110 170.639 110H119.239C114.039 110 110.039 114.2 110.039 119.4ZM156.639 226.8H133.239V133.4H156.639V226.8ZM272.678 110.4C272.078 110.2 271.278 110 270.678 110H219.278C214.078 110 210.078 114.2 210.078 119.4V250H233.278V216C241.878 214.2 249.678 210.8 256.678 206.2V250H280.078V119.4C280.078 115 276.878 111.4 272.678 110.4ZM233.278 191.8V133.4H256.678V173.4C251.278 182 243.078 188.6 233.278 191.8ZM310.117 119.4V240.8C310.117 246 314.117 250 319.317 250H370.717C375.917 250 379.917 246 379.917 240.8V119.4C379.917 114.2 375.917 110 370.717 110H319.317C314.117 110 310.117 114.2 310.117 119.4ZM356.717 226.8H333.317V133.4H356.717V226.8ZM529.241 110.4C528.641 110.2 527.841 110 527.241 110H475.841C470.641 110 466.641 114.2 466.641 119.4V250H489.841V216C498.441 214.2 506.241 210.8 513.241 206.2C523.241 199.6 531.241 190.2 536.441 179.4V119.4C536.441 115 533.441 111.4 529.241 110.4ZM489.841 191.8V133.4H513.241V173.4C507.841 182 499.641 188.6 489.841 191.8ZM636.68 133.4V110H575.88C570.68 110 566.68 114.2 566.68 119.4V240.8C566.68 246 570.68 250 575.88 250H636.48V226.8H589.88V191.8H636.48V168.4H589.88V133.4H636.68ZM666.719 110V250H727.319C732.519 250 736.519 246 736.519 240.8V119.4C736.519 114.2 732.519 110 727.319 110H666.719ZM713.319 226.8H689.919V133.4H713.319V226.8ZM829.358 110.4C828.758 110.2 827.958 110 827.358 110H766.758V250.2H789.958V216C797.158 214.6 803.758 211.8 809.958 208.4L813.358 214.8V250.2H836.758V214.8L826.158 195C830.358 190.2 833.958 185 836.758 179.4V119.4C836.558 115 833.558 111.4 829.358 110.4ZM789.958 133.4H813.358V173.4C807.958 182 799.758 188.6 789.958 191.8V133.4ZM866.797 119.4V240.8C866.797 246 870.797 250 875.997 250H927.397C932.597 250 936.597 246 936.597 240.8V119.4C936.597 114.2 932.597 110 927.397 110H875.997C870.797 110 866.797 114.2 866.797 119.4ZM913.397 226.8H889.997V133.4H913.397V226.8Z" fill="#F5F5F6"/>
<path d="M257.859 96.2188C254.865 96.2188 250.893 94.3958 245.945 90.75C241.128 87.1042 237.612 85.2812 235.398 85.2812C231.492 85.2812 227.13 88.7969 222.312 95.8281L218.602 81.375C223.549 75.5156 229.344 72.5859 235.984 72.5859C240.672 72.5859 246.141 74.8646 252.391 79.4219C254.865 81.2448 257.208 82.1562 259.422 82.1562C261.505 82.1562 263.654 80.8542 265.867 78.25C266.779 77.3385 267.82 76.1667 268.992 74.7344L272.508 88.7969C267.69 93.7448 262.807 96.2188 257.859 96.2188Z" fill="#F5F6F6"/>
</svg>
