<?xml version="1.0" encoding="iso-8859-1"?>
<!-- Generator: Adobe Illustrator 19.0.0, SVG Export Plug-In . SVG Version: 6.00 Build 0)  -->
<svg version="1.1" id="Capa_1" xmlns="http://www.w3.org/2000/svg" xmlns:xlink="http://www.w3.org/1999/xlink" x="0px" y="0px"
	 viewBox="0 0 512 512" style="enable-background:new 0 0 512 512;" xml:space="preserve">
<g>
	<g>
		<path d="M256.947,333.998c-5.523,0-10,4.478-10,10c0,5.522,4.477,10,10,10h0.095c5.523,0,9.952-4.478,9.952-10
			C266.994,338.476,262.47,333.998,256.947,333.998z"/>
	</g>
</g>
<g>
	<g>
		<path d="M470,19.998H42c-23.159,0-42,18.841-42,42v282c0,27.57,22.43,50,50,50h152v38.004h-14c-23.159,0-42,18.841-42,42v8
			c0,5.522,4.477,10,10,10h173c0.3,0,0.595-0.019,0.888-0.045c0.535,0.022,142.612,0.041,142.612,0.041
			c21.78,0,39.5-17.72,39.5-39.5v-24.5v-366C512,38.839,493.159,19.998,470,19.998z M50,373.998c-16.542,0-30-13.458-30-30v-29.996
			h272v59.996h-80H50z M292,393.998v38.004h-70v-38.004H292z M166.09,472.002c1.014-11.197,10.453-20,21.91-20h24h80v0.496
			c0,7.091,1.888,13.745,5.172,19.504H166.09z M492,452.498c0,10.752-8.748,19.5-19.5,19.5h-141c-10.752,0-19.5-8.748-19.5-19.5
			v-10.496v-4.004h180V452.498z M492,417.998H312v-34V246.125h180V417.998z M492,226.125H312v-18.627c0-10.752,8.748-19.5,19.5-19.5
			h141c10.752,0,19.5,8.748,19.5,19.5V226.125z M492,173.168c-5.758-3.283-12.411-5.17-19.5-5.17h-141
			c-10.058,0-19.245,3.785-26.226,9.997h-53.768c-5.523,0-10,4.478-10,10c0,5.522,4.477,10,10,10h41.657
			c-0.755,3.046-1.163,6.227-1.163,9.503v86.504H20V61.998c0-12.131,9.869-22,22-22h428c12.131,0,22,9.869,22,22V173.168z"/>
	</g>
</g>
<g>
	<g>
		<path d="M426.792,196.998H377.29c-5.523,0-10,4.478-10,10c0,5.522,4.477,10,10,10h49.502c5.523,0,10-4.478,10-10
			C436.792,201.476,432.315,196.998,426.792,196.998z"/>
	</g>
</g>
<g>
	<g>
		<path d="M402.065,444.998h-0.13c-5.523,0-10,4.478-10,10c0,5.522,4.477,10,10,10h0.13c5.523,0,10-4.478,10-10
			C412.065,449.476,407.588,444.998,402.065,444.998z"/>
	</g>
</g>
<g>
	<g>
		<path d="M344.88,332.062l18.366-18.365c3.905-3.905,3.905-10.237,0-14.143c-3.905-3.904-10.237-3.904-14.143,0l-25.437,25.437
			c-3.904,3.905-3.904,10.237,0.001,14.142l25.437,25.437c1.953,1.952,4.512,2.929,7.071,2.929s5.119-0.977,7.071-2.929
			c3.905-3.905,3.905-10.237,0-14.143L344.88,332.062z"/>
	</g>
</g>
<g>
	<g>
		<path d="M480.333,324.989l-25.437-25.437c-3.905-3.904-10.237-3.904-14.143,0c-3.905,3.905-3.905,10.237,0,14.143l18.366,18.365
			l-18.366,18.365c-3.903,3.907-3.903,10.239,0.001,14.144c1.953,1.952,4.512,2.929,7.071,2.929s5.119-0.977,7.071-2.929
			l25.437-25.437C484.238,335.227,484.238,328.895,480.333,324.989z"/>
	</g>
</g>
<g>
	<g>
		<path d="M425.025,292.882c-4.761-2.799-10.89-1.207-13.688,3.555l-35.916,61.115c-2.798,4.762-1.207,10.89,3.555,13.688
			c1.591,0.936,3.335,1.381,5.057,1.381c3.429,0,6.768-1.766,8.631-4.936l35.916-61.115
			C431.378,301.808,429.787,295.68,425.025,292.882z"/>
	</g>
</g>
<g>
	<g>
		<path d="M235.643,129.997H96c-5.523,0-10,4.478-10,10c0,5.522,4.477,10,10,10h139.643c5.523,0,10-4.478,10-10
			C245.643,134.475,241.166,129.997,235.643,129.997z"/>
	</g>
</g>
<g>
	<g>
		<path d="M416,129.997H283.849c-5.523,0-10,4.478-10,10c0,5.522,4.477,10,10,10H416c5.523,0,10-4.478,10-10
			C426,134.475,421.523,129.997,416,129.997z"/>
	</g>
</g>
<g>
	<g>
		<path d="M324.58,81.999H96c-5.523,0-10,4.478-10,10c0,5.522,4.477,10,10,10h228.58c5.523,0,10-4.478,10-10
			C334.58,86.477,330.103,81.999,324.58,81.999z"/>
	</g>
</g>
<g>
	<g>
		<path d="M416,81.999h-39.879c-5.523,0-10,4.478-10,10c0,5.522,4.477,10,10,10H416c5.523,0,10-4.478,10-10
			C426,86.477,421.523,81.999,416,81.999z"/>
	</g>
</g>
<g>
	<g>
		<path d="M268.9,225.987h-39.879c-5.522,0-10,4.478-10,10c0,5.522,4.477,10,10,10H268.9c5.523,0,10-4.478,10-10
			C278.9,230.465,274.423,225.987,268.9,225.987z"/>
	</g>
</g>
<g>
	<g>
		<path d="M173.667,226H96c-5.523,0-10,4.478-10,10c0,5.522,4.477,10,10,10h77.667c5.523,0,10-4.478,10-10
			C183.667,230.478,179.19,226,173.667,226z"/>
	</g>
</g>
<g>
	<g>
		<path d="M177.729,177.995H96c-5.523,0-10,4.478-10,10c0,5.522,4.477,10,10,10h81.729c5.523,0,10-4.478,10-10
			C187.729,182.473,183.252,177.995,177.729,177.995z"/>
	</g>
</g>
<g>
	<g>
		<path d="M223.03,180.92c-1.86-1.86-4.44-2.93-7.07-2.93s-5.21,1.069-7.07,2.93c-1.86,1.87-2.93,4.439-2.93,7.08
			c0,2.63,1.07,5.2,2.93,7.069c1.86,1.86,4.44,2.931,7.07,2.931s5.21-1.07,7.07-2.931c1.86-1.869,2.93-4.439,2.93-7.069
			C225.96,185.359,224.89,182.79,223.03,180.92z"/>
	</g>
</g>
<g>
</g>
<g>
</g>
<g>
</g>
<g>
</g>
<g>
</g>
<g>
</g>
<g>
</g>
<g>
</g>
<g>
</g>
<g>
</g>
<g>
</g>
<g>
</g>
<g>
</g>
<g>
</g>
<g>
</g>
</svg>
