<?xml version="1.0"?>
<svg xmlns="http://www.w3.org/2000/svg" id="Bold" enable-background="new 0 0 32 32" height="512px" viewBox="0 0 32 32" width="512px" class=""><g><path d="m26 32h-20c-3.314 0-6-2.686-6-6v-20c0-3.314 2.686-6 6-6h20c3.314 0 6 2.686 6 6v20c0 3.314-2.686 6-6 6z" fill="#f5e6fe" data-original="#F5E6FE" class="" style="fill:#FDFDFD" data-old_color="#f5e6fe"/><path d="m19.671 17.538-.006.05c-1.466-.73-1.619-.828-1.809-.544-.131.197-.514.643-.629.775-.117.13-.233.14-.431.05-.2-.1-.842-.31-1.602-.99-.592-.53-.989-1.18-1.107-1.38-.196-.337.213-.385.585-1.089.067-.14.033-.25-.017-.349-.05-.1-.448-1.08-.615-1.471-.16-.389-.325-.34-.448-.34-.384-.033-.665-.028-.912.229-1.076 1.183-.805 2.402.116 3.7 1.809 2.368 2.773 2.804 4.536 3.409.476.151.91.13 1.253.081.383-.061 1.178-.481 1.344-.951.17-.47.17-.86.12-.95-.047-.09-.178-.14-.378-.23z" fill="#d9a4fc" data-original="#D9A4FC" class="active-path" style="fill:#1A1A18" data-old_color="#d9a4fc"/><path d="m21.68 10.299c-5.126-4.955-13.61-1.361-13.613 5.63 0 1.397.366 2.76 1.063 3.963l-1.13 4.108 4.223-1.101c5.27 2.846 11.774-.933 11.777-6.966 0-2.117-.827-4.11-2.33-5.607zm.988 5.612c-.004 5.089-5.59 8.266-10.008 5.669l-.24-.143-2.5.65.67-2.43-.159-.25c-2.75-4.376.409-10.096 5.617-10.096 1.769 0 3.43.69 4.681 1.94 1.25 1.239 1.939 2.9 1.939 4.66z" fill="#be63f9" data-original="#BE63F9" class="" data-old_color="#be63f9" style="fill:#1A1A18"/></g> </svg>
